<svg xmlns="http://www.w3.org/2000/svg" width="1600" height="1000" viewBox="0 0 1600 1000" role="img" aria-label="Decorative floral background">
  <defs>
    <linearGradient id="bg" x1="0" y1="0" x2="1" y2="1">
      <stop offset="0%" stop-color="#f7efe8"/>
      <stop offset="45%" stop-color="#f3e8de"/>
      <stop offset="100%" stop-color="#eadfd5"/>
    </linearGradient>
    <radialGradient id="petal" cx="50%" cy="50%" r="60%">
      <stop offset="0%" stop-color="#ffffff" stop-opacity="0.85"/>
      <stop offset="100%" stop-color="#d6c0af" stop-opacity="0.35"/>
    </radialGradient>
  </defs>
  <rect width="1600" height="1000" fill="url(#bg)"/>
  <g fill="url(#petal)" opacity="0.85">
    <ellipse cx="240" cy="180" rx="180" ry="95"/>
    <ellipse cx="430" cy="230" rx="160" ry="85"/>
    <ellipse cx="760" cy="140" rx="220" ry="100"/>
    <ellipse cx="980" cy="250" rx="180" ry="90"/>
    <ellipse cx="1280" cy="180" rx="210" ry="105"/>
    <ellipse cx="1180" cy="520" rx="220" ry="120"/>
    <ellipse cx="930" cy="690" rx="180" ry="90"/>
    <ellipse cx="620" cy="610" rx="200" ry="110"/>
    <ellipse cx="320" cy="700" rx="200" ry="105"/>
    <ellipse cx="170" cy="470" rx="170" ry="95"/>
  </g>
  <g stroke="#b79f8e" stroke-opacity="0.25" stroke-width="3" fill="none">
    <path d="M90 900 C220 760, 260 560, 180 410" />
    <path d="M360 940 C470 760, 500 560, 430 360" />
    <path d="M650 960 C770 780, 810 580, 750 350" />
    <path d="M970 950 C1080 760, 1110 560, 1040 370" />
    <path d="M1270 930 C1370 760, 1400 560, 1340 390" />
  </g>
</svg>
